<?xml version="1.0" encoding="UTF-8"?>
<svg version="1.1" xmlns="http://www.w3.org/2000/svg" width="512" height="512">
<path d="M0 0 C0.94637675 -0.03868501 1.89275351 -0.07737003 2.86780834 -0.11722732 C7.64793138 -0.28555069 12.26728198 -0.02862976 17.03125 0.46875 C18.4312373 0.58216493 19.83161499 0.69083981 21.2322998 0.79528809 C23.39655816 0.95723947 25.56016924 1.12179791 27.72302628 1.30157471 C35.0678334 1.90798945 42.41467686 2.13197428 49.77933812 2.3529458 C61.21435293 2.71167402 72.64110869 3.23833936 84.04931641 4.10644531 C85.15117783 4.1748764 86.25303925 4.2433075 87.38829041 4.31381226 C88.4011058 4.40016937 89.4139212 4.48652649 90.45742798 4.57550049 C91.77029754 4.67573957 91.77029754 4.67573957 93.10968971 4.77800369 C96.70349361 5.89387453 98.21917213 7.64190453 100.5859375 10.546875 C101.07863989 13.2887542 101.26060528 15.40988796 101.2151432 18.14472961 C101.22241041 18.90539226 101.22967761 19.66605491 101.23716503 20.44976795 C101.25546475 23.00778349 101.23803767 25.56430897 101.22085571 28.12231445 C101.22661496 29.97098465 101.23455475 31.81964912 101.24449193 33.66830158 C101.2654155 38.75541196 101.25502503 43.84205494 101.23956084 48.92916727 C101.2282738 54.41255815 101.24569689 59.89586719 101.25946045 65.37924194 C101.28172568 76.12396028 101.27687701 86.86850426 101.26239724 97.61322951 C101.25111793 106.34353682 101.24956844 115.07379517 101.25501633 123.80410767 C101.25616557 125.66596882 101.25616557 125.66596882 101.25733804 127.56544334 C101.25893662 130.08678303 101.26055769 132.6081227 101.262201 135.12946236 C101.27606119 158.11259331 101.2616732 181.09564692 101.23548801 204.07875891 C101.21175946 225.06525226 101.21388258 246.05159392 101.23779297 267.03808594 C101.26455885 290.60974661 101.27509474 314.18134268 101.25973165 337.75302029 C101.25813886 340.26522762 101.25656701 342.77743497 101.25501633 345.28964233 C101.25385926 347.14385668 101.25385926 347.14385668 101.25267882 349.03552991 C101.24835671 357.75813315 101.25565938 366.48068267 101.26741409 375.20327759 C101.28141868 385.82925391 101.27768209 396.45504549 101.25101037 407.08100057 C101.23784478 412.50542195 101.23276658 417.92953502 101.24925613 423.35395432 C101.26411181 428.31583356 101.25604 433.27711757 101.22936837 438.2389425 C101.22376477 440.0376528 101.22666571 441.83641298 101.23874731 443.63509142 C101.25387637 446.07379032 101.23844096 448.51043037 101.2151432 450.94902039 C101.22684903 451.65320284 101.23855487 452.35738529 101.25061542 453.0829066 C101.18192479 456.66146733 100.61046994 458.51107733 98.57418668 461.48241556 C94.74182783 464.13003593 91.6436042 464.24267371 87.14474487 464.1760807 C85.86699263 464.18698151 85.86699263 464.18698151 84.56342721 464.19810253 C81.69532299 464.21641982 78.82854475 464.19896602 75.96044922 464.18179321 C73.88904064 464.18755173 71.81763717 464.19549103 69.74624443 464.20542943 C64.04346592 464.2263628 58.34110408 464.21595797 52.63832378 464.20049834 C46.4923535 464.18921534 40.34645638 464.20663238 34.20050049 464.22039795 C22.85293518 464.24137952 11.50554031 464.23951458 0.15797919 464.22584061 C-10.32440268 464.21327095 -20.80673568 464.20997551 -31.28912354 464.21595383 C-32.33143868 464.21652672 -32.33143868 464.21652672 -33.39481069 464.21711118 C-36.21542549 464.21866783 -39.03604026 464.22025982 -41.85665501 464.22191 C-68.32508472 464.23721067 -94.79342949 464.22332874 -121.2618461 464.19642551 C-144.78593769 464.17269683 -168.30989396 464.17481994 -191.83398438 464.19873047 C-218.25348678 464.22549411 -244.67291413 464.23612562 -271.09242821 464.22066915 C-273.90795261 464.21906552 -276.72347703 464.21750133 -279.53900146 464.21595383 C-280.57890935 464.21536075 -280.57890935 464.21536075 -281.63982548 464.21475569 C-292.11653264 464.20906437 -302.5931856 464.21572702 -313.06988525 464.22835159 C-324.98043113 464.24263226 -336.89081714 464.23862482 -348.80135679 464.21194787 C-354.88195337 464.19877897 -360.96227483 464.1937098 -367.04286957 464.21019363 C-372.60426259 464.2250423 -378.1651243 464.21698883 -383.7264688 464.19030587 C-385.74321329 464.18469932 -387.76000225 464.18760967 -389.77671838 464.19968481 C-392.50941527 464.2147976 -395.24027063 464.19939315 -397.97286987 464.1760807 C-398.76368698 464.18778653 -399.55450408 464.19949237 -400.36928535 464.21155292 C-404.21650677 464.14554069 -406.23742439 463.67213812 -409.40231168 461.42775476 C-411.84666947 457.92737052 -412.04036313 456.0686566 -412.0432682 451.82359314 C-412.05053541 451.15747942 -412.05780261 450.49136569 -412.06529003 449.8050667 C-412.08356658 447.56860805 -412.06617497 445.33385878 -412.04898071 443.09741211 C-412.05474092 441.47972962 -412.06268137 439.86205367 -412.07261693 438.24439144 C-412.09352752 433.79574675 -412.08315612 429.347637 -412.06768584 424.89899015 C-412.05639342 420.10271767 -412.07382455 415.30653849 -412.08758545 410.51028442 C-412.10984496 401.11311226 -412.10500459 391.71613952 -412.09052224 382.31895947 C-412.07924067 374.68323454 -412.07769442 367.04756559 -412.08314133 359.41183472 C-412.08390749 358.32601417 -412.08467366 357.24019363 -412.08546304 356.12146944 C-412.08706163 353.91580175 -412.0886827 351.71013407 -412.090326 349.50446641 C-412.10459145 328.81090865 -412.08817827 308.11746155 -412.06132416 287.42392194 C-412.03898468 269.6591868 -412.04286459 251.89461501 -412.06591797 234.12988281 C-412.0926619 213.51152257 -412.10321808 192.89325938 -412.08785665 172.27488422 C-412.08626387 170.07722793 -412.08469201 167.87957161 -412.08314133 165.68191528 C-412.08236995 164.60056256 -412.08159857 163.51920983 -412.08080382 162.40508884 C-412.0764826 154.77653582 -412.08378246 147.14804424 -412.09553909 139.51950073 C-412.109547 130.22567458 -412.10580016 120.93205963 -412.07913537 111.63825774 C-412.06597416 106.89431108 -412.06088396 102.15071684 -412.07738113 97.40677261 C-412.09224616 93.06660461 -412.08414999 88.72711672 -412.05749337 84.38701069 C-412.05189369 82.81441012 -412.05478212 81.24175245 -412.06687231 79.66918838 C-412.08202318 77.53535471 -412.06654667 75.40386692 -412.0432682 73.27015686 C-412.04245644 72.08396287 -412.04164468 70.89776888 -412.04080832 69.67562962 C-411.21331715 65.54474158 -409.74942464 64.05992914 -406.4140625 61.546875 C-403.81733143 60.98275721 -403.81733143 60.98275721 -400.98613167 61.06965065 C-399.90237507 61.09013045 -398.81861847 61.11061025 -397.70202076 61.13171065 C-396.51678 61.17990049 -395.33153923 61.22809034 -394.11038208 61.27774048 C-392.16643429 61.32456991 -390.2224864 61.3713949 -388.278535 61.41807421 C-386.16956499 61.47366291 -384.06133554 61.54187965 -381.95285797 61.61367607 C-377.43395581 61.76702846 -372.91454303 61.88464796 -368.3944397 61.99620056 C-363.5199906 62.11777686 -358.64563644 62.24111601 -353.77151704 62.37534547 C-341.62344438 62.70790015 -329.47593634 62.94390925 -317.32467651 63.12289429 C-316.44290486 63.13603572 -315.5611332 63.14917716 -314.65264119 63.16271682 C-307.38488798 63.27066925 -300.11707801 63.37456671 -292.84923521 63.47629955 C-286.2973763 63.56806402 -279.74558037 63.66328129 -273.19384766 63.76367188 C-272.26008674 63.77793584 -271.32632582 63.79219981 -270.36426912 63.80689602 C-255.36165534 64.04158158 -240.36916491 64.45684099 -225.372669 64.93779583 C-209.89493257 65.42946763 -194.42337885 65.70168391 -178.93805778 65.78742349 C-170.27030172 65.84167513 -161.62776281 65.98950679 -152.96869278 66.39439774 C-112.09518915 68.85693452 -112.09518915 68.85693452 -76.52073371 51.66382658 C-67.62366357 43.51871953 -59.5882024 34.76995711 -52.09742928 25.32410622 C-36.72839446 6.15842696 -24.63427105 0.57868587 0 0 Z " fill="#FED98E" transform="translate(411.4140625,21.453125)"/>
<path d="M0 0 C0.94637675 -0.03868501 1.89275351 -0.07737003 2.86780834 -0.11722732 C7.64793138 -0.28555069 12.26728198 -0.02862976 17.03125 0.46875 C18.4312373 0.58216493 19.83161499 0.69083981 21.2322998 0.79528809 C23.39655816 0.95723947 25.56016924 1.12179791 27.72302628 1.30157471 C35.0678334 1.90798945 42.41467686 2.13197428 49.77933812 2.3529458 C61.21435293 2.71167402 72.64110869 3.23833936 84.04931641 4.10644531 C85.15117783 4.1748764 86.25303925 4.2433075 87.38829041 4.31381226 C88.4011058 4.40016937 89.4139212 4.48652649 90.45742798 4.57550049 C91.77029754 4.67573957 91.77029754 4.67573957 93.10968971 4.77800369 C96.70349361 5.89387453 98.21917213 7.64190453 100.5859375 10.546875 C101.07863989 13.2887542 101.26060528 15.40988796 101.2151432 18.14472961 C101.22241041 18.90539226 101.22967761 19.66605491 101.23716503 20.44976795 C101.25546475 23.00778349 101.23803767 25.56430897 101.22085571 28.12231445 C101.22661496 29.97098465 101.23455475 31.81964912 101.24449193 33.66830158 C101.2654155 38.75541196 101.25502503 43.84205494 101.23956084 48.92916727 C101.2282738 54.41255815 101.24569689 59.89586719 101.25946045 65.37924194 C101.28172568 76.12396028 101.27687701 86.86850426 101.26239724 97.61322951 C101.25111793 106.34353682 101.24956844 115.07379517 101.25501633 123.80410767 C101.25616557 125.66596882 101.25616557 125.66596882 101.25733804 127.56544334 C101.25893662 130.08678303 101.26055769 132.6081227 101.262201 135.12946236 C101.27606119 158.11259331 101.2616732 181.09564692 101.23548801 204.07875891 C101.21175946 225.06525226 101.21388258 246.05159392 101.23779297 267.03808594 C101.26455885 290.60974661 101.27509474 314.18134268 101.25973165 337.75302029 C101.25813886 340.26522762 101.25656701 342.77743497 101.25501633 345.28964233 C101.25385926 347.14385668 101.25385926 347.14385668 101.25267882 349.03552991 C101.24835671 357.75813315 101.25565938 366.48068267 101.26741409 375.20327759 C101.28141868 385.82925391 101.27768209 396.45504549 101.25101037 407.08100057 C101.23784478 412.50542195 101.23276658 417.92953502 101.24925613 423.35395432 C101.26411181 428.31583356 101.25604 433.27711757 101.22936837 438.2389425 C101.22376477 440.0376528 101.22666571 441.83641298 101.23874731 443.63509142 C101.25387637 446.07379032 101.23844096 448.51043037 101.2151432 450.94902039 C101.22684903 451.65320284 101.23855487 452.35738529 101.25061542 453.0829066 C101.18192479 456.66146733 100.61046994 458.51107733 98.57418668 461.48241556 C94.74182783 464.13003593 91.6436042 464.24267371 87.14474487 464.1760807 C85.86699263 464.18698151 85.86699263 464.18698151 84.56342721 464.19810253 C81.69532299 464.21641982 78.82854475 464.19896602 75.96044922 464.18179321 C73.88904064 464.18755173 71.81763717 464.19549103 69.74624443 464.20542943 C64.04346592 464.2263628 58.34110408 464.21595797 52.63832378 464.20049834 C46.4923535 464.18921534 40.34645638 464.20663238 34.20050049 464.22039795 C22.85293518 464.24137952 11.50554031 464.23951458 0.15797919 464.22584061 C-10.32440268 464.21327095 -20.80673568 464.20997551 -31.28912354 464.21595383 C-32.33143868 464.21652672 -32.33143868 464.21652672 -33.39481069 464.21711118 C-36.21542549 464.21866783 -39.03604026 464.22025982 -41.85665501 464.22191 C-68.32508472 464.23721067 -94.79342949 464.22332874 -121.2618461 464.19642551 C-144.78593769 464.17269683 -168.30989396 464.17481994 -191.83398438 464.19873047 C-218.25348678 464.22549411 -244.67291413 464.23612562 -271.09242821 464.22066915 C-273.90795261 464.21906552 -276.72347703 464.21750133 -279.53900146 464.21595383 C-280.57890935 464.21536075 -280.57890935 464.21536075 -281.63982548 464.21475569 C-292.11653264 464.20906437 -302.5931856 464.21572702 -313.06988525 464.22835159 C-324.98043113 464.24263226 -336.89081714 464.23862482 -348.80135679 464.21194787 C-354.88195337 464.19877897 -360.96227483 464.1937098 -367.04286957 464.21019363 C-372.60426259 464.2250423 -378.1651243 464.21698883 -383.7264688 464.19030587 C-385.74321329 464.18469932 -387.76000225 464.18760967 -389.77671838 464.19968481 C-392.50941527 464.2147976 -395.24027063 464.19939315 -397.97286987 464.1760807 C-398.76368698 464.18778653 -399.55450408 464.19949237 -400.36928535 464.21155292 C-404.21650677 464.14554069 -406.23742439 463.67213812 -409.40231168 461.42775476 C-411.84666947 457.92737052 -412.04036313 456.0686566 -412.0432682 451.82359314 C-412.05053541 451.15747942 -412.05780261 450.49136569 -412.06529003 449.8050667 C-412.08356658 447.56860805 -412.06617497 445.33385878 -412.04898071 443.09741211 C-412.05474092 441.47972962 -412.06268137 439.86205367 -412.07261693 438.24439144 C-412.09352752 433.79574675 -412.08315612 429.347637 -412.06768584 424.89899015 C-412.05639342 420.10271767 -412.07382455 415.30653849 -412.08758545 410.51028442 C-412.10984496 401.11311226 -412.10500459 391.71613952 -412.09052224 382.31895947 C-412.07924067 374.68323454 -412.07769442 367.04756559 -412.08314133 359.41183472 C-412.08390749 358.32601417 -412.08467366 357.24019363 -412.08546304 356.12146944 C-412.08706163 353.91580175 -412.0886827 351.71013407 -412.090326 349.50446641 C-412.10459145 328.81090865 -412.08817827 308.11746155 -412.06132416 287.42392194 C-412.03898468 269.6591868 -412.04286459 251.89461501 -412.06591797 234.12988281 C-412.0926619 213.51152257 -412.10321808 192.89325938 -412.08785665 172.27488422 C-412.08626387 170.07722793 -412.08469201 167.87957161 -412.08314133 165.68191528 C-412.08236995 164.60056256 -412.08159857 163.51920983 -412.08080382 162.40508884 C-412.0764826 154.77653582 -412.08378246 147.14804424 -412.09553909 139.51950073 C-412.109547 130.22567458 -412.10580016 120.93205963 -412.07913537 111.63825774 C-412.06597416 106.89431108 -412.06088396 102.15071684 -412.07738113 97.40677261 C-412.09224616 93.06660461 -412.08414999 88.72711672 -412.05749337 84.38701069 C-412.05189369 82.81441012 -412.05478212 81.24175245 -412.06687231 79.66918838 C-412.08202318 77.53535471 -412.06654667 75.40386692 -412.0432682 73.27015686 C-412.04245644 72.08396287 -412.04164468 70.89776888 -412.04080832 69.67562962 C-411.21331715 65.54474158 -409.74942464 64.05992914 -406.4140625 61.546875 C-403.81733143 60.98275721 -403.81733143 60.98275721 -400.98613167 61.06965065 C-399.90237507 61.09013045 -398.81861847 61.11061025 -397.70202076 61.13171065 C-396.51678 61.17990049 -395.33153923 61.22809034 -394.11038208 61.27774048 C-392.16643429 61.32456991 -390.2224864 61.3713949 -388.278535 61.41807421 C-386.16956499 61.47366291 -384.06133554 61.54187965 -381.95285797 61.61367607 C-377.43395581 61.76702846 -372.91454303 61.88464796 -368.3944397 61.99620056 C-363.5199906 62.11777686 -358.64563644 62.24111601 -353.77151704 62.37534547 C-341.62344438 62.70790015 -329.47593634 62.94390925 -317.32467651 63.12289429 C-316.44290486 63.13603572 -315.5611332 63.14917716 -314.65264119 63.16271682 C-307.38488798 63.27066925 -300.11707801 63.37456671 -292.84923521 63.47629955 C-286.2973763 63.56806402 -279.74558037 63.66328129 -273.19384766 63.76367188 C-272.26008674 63.77793584 -271.32632582 63.79219981 -270.36426912 63.80689602 C-255.36165534 64.04158158 -240.36916491 64.45684099 -225.372669 64.93779583 C-209.89493257 65.42946763 -194.42337885 65.70168391 -178.93805778 65.78742349 C-170.27030172 65.84167513 -161.62776281 65.98950679 -152.96869278 66.39439774 C-112.09518915 68.85693452 -112.09518915 68.85693452 -76.52073371 51.66382658 C-67.62366357 43.51871953 -59.5882024 34.76995711 -52.09742928 25.32410622 C-36.72839446 6.15842696 -24.63427105 0.57868587 0 0 Z M-75.74777222 76.29428101 C-77.4140625 78.546875 -77.4140625 78.546875 -80.4140625 80.546875 C-83.28198528 80.80858803 -83.28198528 80.80858803 -86.8490448 80.8253479 C-87.83294228 80.8340365 -87.83294228 80.8340365 -88.83671647 80.84290063 C-91.03857342 80.85993027 -93.24022115 80.86277962 -95.44213867 80.86572266 C-97.01892106 80.87501881 -98.59569851 80.88518701 -100.17247009 80.89616394 C-104.45726927 80.92351339 -108.74203549 80.93862796 -113.0268991 80.95159197 C-117.50326691 80.96720091 -121.97956718 80.99399823 -126.45588684 81.0196228 C-134.93434415 81.06645027 -143.41281411 81.10317515 -151.89133483 81.13629568 C-161.54301577 81.17448906 -171.19462894 81.22390649 -180.8462528 81.27427983 C-200.70213936 81.37765868 -220.5580688 81.4668997 -240.4140625 81.546875 C-240.0401236 81.97152605 -239.66618469 82.3961771 -239.28091431 82.83369637 C-236.6982432 85.80115555 -234.19420548 88.77533519 -231.89599609 91.96994019 C-222.93276146 104.36369341 -212.55840857 117.01782703 -196.75013733 119.60841751 C-183.51810949 121.10355554 -170.16281315 120.48063751 -156.89447021 119.82684326 C-149.90397399 119.51558517 -142.90767827 119.41328351 -135.91201782 119.27694511 C-130.4833656 119.16709085 -125.06075676 119.02838336 -119.63574219 118.79837036 C-118.64688522 118.7609523 -117.65802826 118.72353424 -116.63920593 118.6849823 C-114.80012589 118.61372856 -112.96145771 118.5303459 -111.12361145 118.43229675 C-106.35600054 118.26043495 -103.27129944 118.37192109 -99.4140625 121.546875 C-97.82154607 124.73190787 -98.02276489 128.0801155 -98.4140625 131.546875 C-100.15659595 134.78300854 -100.88592194 135.37082815 -104.4140625 136.546875 C-105.88859761 136.65380305 -107.36732725 136.70749322 -108.84559631 136.72769165 C-109.7524115 136.74207275 -110.65922668 136.75645386 -111.59352112 136.77127075 C-112.58625534 136.78181488 -113.57898956 136.79235901 -114.60180664 136.80322266 C-115.64932098 136.81782532 -116.69683533 136.83242798 -117.77609253 136.84747314 C-127.44285207 136.97350813 -137.1104312 137.04223433 -146.77784061 137.09531593 C-153.27071733 137.1310711 -159.76235449 137.18436794 -166.25463867 137.28076172 C-172.53466399 137.37372062 -178.81359252 137.42225984 -185.09426689 137.43970871 C-187.4836893 137.45377951 -189.87307431 137.48336546 -192.26210213 137.52901077 C-213.30006591 137.91128652 -213.30006591 137.91128652 -219.53686523 132.67358398 C-221.64427185 130.19592285 -221.64427185 130.19592285 -223.4140625 127.546875 C-223.98999649 126.69331421 -224.56593048 125.83975342 -225.15931702 124.96032715 C-226.89137672 122.21460606 -228.52651846 119.4085857 -230.1640625 116.60546875 C-241.01650989 100.51033566 -241.01650989 100.51033566 -269.4140625 81.546875 C-309.6740625 81.546875 -349.9340625 81.546875 -391.4140625 81.546875 C-391.4140625 201.006875 -391.4140625 320.466875 -391.4140625 443.546875 C-235.6540625 443.546875 -79.8940625 443.546875 80.5859375 443.546875 C80.5859375 342.566875 80.5859375 241.586875 80.5859375 137.546875 C47.2559375 137.216875 13.9259375 136.886875 -20.4140625 136.546875 C-25.4140625 131.546875 -25.4140625 131.546875 -26.078125 129.23046875 C-26.05878906 128.11865234 -26.05878906 128.11865234 -26.0390625 126.984375 C-26.05195313 126.24058594 -26.06484375 125.49679688 -26.078125 124.73046875 C-25.04368413 121.32898379 -23.4269922 120.40715764 -20.4140625 118.546875 C-17.13601708 117.95141918 -13.89970075 117.98292407 -10.57495117 118.00097656 C-9.58911041 117.99063889 -8.60326965 117.98030121 -7.58755493 117.96965027 C-4.33554742 117.94019995 -1.0841617 117.93872259 2.16796875 117.9375 C4.42527963 117.92251991 6.68257954 117.90579313 8.93986511 117.88739014 C14.87625631 117.8436855 20.81249966 117.82371046 26.74902344 117.80865479 C33.8743931 117.78565511 40.99959947 117.73322188 48.12483978 117.68571472 C58.94524838 117.61686943 69.7651878 117.58544477 80.5859375 117.546875 C80.5859375 87.186875 80.5859375 56.826875 80.5859375 25.546875 C64.15447725 24.09623526 47.86244586 22.84967304 31.3984375 22.234375 C29.59516117 22.16676342 29.59516117 22.16676342 27.75545502 22.09778595 C-22.35365516 20.44085093 -48.44043475 34.89886113 -75.74777222 76.29428101 Z " fill="#000000" transform="translate(411.4140625,21.453125)"/>
<path d="M0 0 C0 30.36 0 60.72 0 92 C-10.84939453 92.03867188 -10.84939453 92.03867188 -21.91796875 92.078125 C-26.49808244 92.1032892 -31.07812982 92.12961886 -35.65820312 92.16015625 C-42.92912049 92.20852339 -50.19988439 92.25255588 -57.47094727 92.27099609 C-63.33256842 92.28613159 -69.19378835 92.32052237 -75.05523109 92.36830902 C-77.29230577 92.38315482 -79.52943773 92.39104284 -81.76656151 92.39188385 C-84.89843988 92.39424557 -88.02920228 92.42126222 -91.16088867 92.45410156 C-92.55056099 92.44655602 -92.55056099 92.44655602 -93.9683075 92.43885803 C-98.10076685 92.50596896 -100.43901176 92.67050221 -104.06416321 94.79974365 C-106.65401595 97.74334921 -106.77820737 100.15559437 -107 104 C-107.33 103.34 -107.66 102.68 -108 102 C-115.92 102 -123.84 102 -132 102 C-132.66 103.98 -133.32 105.96 -134 108 C-135.60018419 110.15053656 -136.52939522 110.85282584 -139.0859375 111.65234375 C-143.09665833 112.1519728 -145.28751908 112.37897921 -148.9375 110.4375 C-151 108 -151 108 -153 102 C-160.92 102 -168.84 102 -177 102 C-177.33 102.66 -177.66 103.32 -178 104 C-178.35807292 102.01432292 -178.71614583 100.02864583 -179.07421875 98.04296875 C-180.45677854 94.99200348 -181.94780878 94.37808882 -185 93 C-188.11358093 92.70813097 -191.16778189 92.92131133 -194.28369141 93.12304688 C-196.21165473 93.21850673 -198.13968831 93.31255513 -200.06777954 93.40539551 C-201.08941822 93.45885635 -202.1110569 93.5123172 -203.16365433 93.56739807 C-209.80624776 93.88276767 -216.4558077 94.01108789 -223.10352516 94.17588043 C-228.90467749 94.33016601 -234.69000027 94.54504502 -240.48242188 94.90283203 C-281.56336791 97.35897087 -281.56336791 97.35897087 -297.08105469 84.0703125 C-305.903426 76.02899108 -314.26200907 66.88421031 -321 57 C-321 56.67 -321 56.34 -321 56 C-320.18462076 56.0031424 -319.36924152 56.00628481 -318.52915382 56.00952244 C-298.6639469 56.0829806 -278.7992215 56.10660153 -258.9338932 56.07515812 C-249.32697784 56.06114639 -239.72061535 56.06383184 -230.11376953 56.10620117 C-221.7376838 56.14309967 -213.36227235 56.14828616 -204.98615777 56.11582941 C-200.55319896 56.09974797 -196.12150436 56.0992498 -191.68864822 56.13676643 C-187.51012089 56.17162857 -183.33377308 56.16386641 -179.15530777 56.12437057 C-177.62757094 56.11726738 -176.09967094 56.12531613 -174.57212067 56.15022469 C-166.96626647 56.26573443 -161.22101771 55.97897345 -155.24180603 50.75817871 C-151.45199556 46.85658513 -148.44790403 42.54693184 -145.53474426 37.96760559 C-111.3019898 -14.93478549 -56.35415954 -4.26831724 0 0 Z " fill="#FECC68" transform="translate(492,47)"/>
<path d="M0 0 C1.35963671 -0.02136985 2.71914403 -0.05521711 4.078125 -0.10253906 C14.67894137 -0.46768118 23.47717466 0.97522741 31.68603516 8.1484375 C36.94095185 13.62756625 39.88544156 20.34106799 40.12841797 27.9050293 C39.70612568 37.09308566 37.01534863 42.6853581 30.82373047 49.4597168 C27.60705639 52.39360634 25.12352141 54.4050293 20.69091797 54.4050293 C25.9319229 60.92221274 31.27229489 67.25808585 36.94091797 73.40893555 C38.80813327 75.538728 39.66889464 76.59016606 39.74560547 79.4284668 C39.4386436 83.4456634 39.20558478 85.76559477 36.62841797 88.9675293 C32.82221961 90.830137 29.77472082 91.49809177 25.69091797 90.4050293 C19.58996376 86.73963388 15.28032302 80.67844951 10.96435547 75.15112305 C8.37333359 72.02141793 5.59829638 69.24159763 2.69091797 66.4050293 C2.66513672 67.56260742 2.63935547 68.72018555 2.61279297 69.9128418 C2.55648448 71.45194058 2.49913777 72.99100163 2.44091797 74.5300293 C2.41964844 75.67084961 2.41964844 75.67084961 2.39794922 76.8347168 C2.17126316 82.09383342 1.15592208 85.22357697 -2.30908203 89.4050293 C-4.56892313 90.53494984 -6.1063469 90.70302886 -8.62158203 90.8425293 C-9.38083984 90.90311523 -10.14009766 90.96370117 -10.92236328 91.02612305 C-14.57251336 90.07624766 -16.44009638 87.53069579 -18.30908203 84.4050293 C-18.79066774 81.60756483 -18.98668073 79.42640974 -18.94018555 76.64306641 C-18.94734085 75.88944321 -18.95449615 75.13582001 -18.96186829 74.35935974 C-18.97869536 71.88306963 -18.95939187 69.40860525 -18.93798828 66.93237305 C-18.93881745 65.20414582 -18.94127867 63.47591868 -18.94529724 61.74769592 C-18.948151 58.13217325 -18.93349424 54.51727153 -18.90600586 50.90185547 C-18.87189782 46.27242692 -18.87795355 41.64410644 -18.89666843 37.0146246 C-18.90724626 33.4483164 -18.898294 29.88226521 -18.88328362 26.31598091 C-18.87810879 24.60918504 -18.87857512 22.90236225 -18.88482857 21.19556999 C-18.89029147 18.80899368 -18.86987464 16.42399416 -18.8425293 14.03759766 C-18.84905518 13.3356427 -18.85558105 12.63368774 -18.86230469 11.91046143 C-18.76993741 7.15937654 -17.66140138 4.74741976 -14.30908203 1.4050293 C-10.08456029 -0.70723157 -4.64651811 0.05464544 0 0 Z " fill="#020201" transform="translate(297.30908203125,266.594970703125)"/>
<path d="M0 0 C0.69609375 0.2784375 1.3921875 0.556875 2.109375 0.84375 C7.26250454 3.09097942 11.10269924 6.11810129 14 11 C14.66167347 14.67596371 14.28662669 16.36942128 12.75 19.75 C10.00388623 23.28071771 8.15506208 23.84451087 3.75 24.4375 C-0.52259152 23.93903099 -2.67142702 22.64629148 -6.10546875 20.19140625 C-10.30164637 17.5525729 -15.15884689 17.46315926 -20 18 C-23.00120605 19.0636649 -23.00120605 19.0636649 -25 21 C-25 22.32 -25 23.64 -25 25 C-24.31486328 25.27674561 -23.62972656 25.55349121 -22.92382812 25.83862305 C-19.77936259 27.11387262 -16.63970823 28.40058471 -13.5 29.6875 C-12.42234375 30.12255859 -11.3446875 30.55761719 -10.234375 31.00585938 C5.31921479 37.40748932 5.31921479 37.40748932 10.875 44 C11.70644531 44.9590625 11.70644531 44.9590625 12.5546875 45.9375 C16.74452701 51.91651422 16.56165598 57.9470741 16 65 C14.59741188 72.97114438 9.07442339 78.9793068 2.734375 83.6796875 C-6.75277866 88.96027303 -19.24999269 88.52844153 -29.60546875 86.18359375 C-37.88774423 83.10854451 -45.0963458 77.3554813 -50 70 C-50.46755969 66.99425912 -50.59128296 64.94956966 -48.94921875 62.3125 C-46.23317328 58.97953565 -44.54604715 57.17568718 -40.25 56.6875 C-35.6077659 57.13386866 -32.86830558 59.48388076 -29.30078125 62.37890625 C-23.29309533 66.79965627 -17.28072871 66.91490639 -10 66 C-7.66810449 65.33112251 -7.66810449 65.33112251 -6 64 C-5.18129815 60.43793339 -5.18129815 60.43793339 -5 57 C-11.6303949 52.92967424 -18.64132357 50.2653621 -25.90625 47.53125 C-32.70173789 44.86159404 -38.32682065 41.91380874 -42.5234375 35.76953125 C-42.80445313 35.12371094 -43.08546875 34.47789062 -43.375 33.8125 C-43.67148437 33.15894531 -43.96796875 32.50539063 -44.2734375 31.83203125 C-46.81559414 25.42196962 -46.97489954 19.64015656 -44.25 13.25 C-40.2995676 5.39000173 -34.54928548 0.30666658 -26.13671875 -2.65625 C-17.31756657 -4.07505328 -8.15855157 -3.72595268 0 0 Z " fill="#030302" transform="translate(90,270)"/>
<path d="M0 0 C1.5234375 1.24609375 1.5234375 1.24609375 3.5234375 4.24609375 C3.75636884 8.46215096 3.20398778 12.1572133 0.9609375 15.74609375 C-2.47896881 17.86295917 -5.49287386 18.68872582 -9.4765625 18.24609375 C-11.7265625 17.18359375 -11.7265625 17.18359375 -14.1015625 15.80859375 C-20.41155351 12.33761257 -26.43173438 12.23262725 -33.4765625 13.24609375 C-39.89792677 15.36785458 -44.82018311 19.5876968 -48.4765625 25.24609375 C-51.68206246 31.71217099 -51.60719619 39.76649444 -49.859375 46.69140625 C-47.19160843 52.71158744 -42.10172816 56.87153109 -36.6875 60.41796875 C-33.4675268 61.62403645 -30.52920641 61.58688573 -27.1015625 61.62109375 C-25.81507813 61.64945312 -24.52859375 61.6778125 -23.203125 61.70703125 C-17.87132876 61.04754283 -14.92046296 58.61399945 -11.1015625 54.99609375 C-8.16780535 53.04025565 -6.00807634 52.59439367 -2.48046875 52.80859375 C1.46346794 53.66964815 2.93841892 55.07944599 5.5234375 58.24609375 C6.60999084 62.17383725 6.41591112 65.54070812 4.515625 69.171875 C-0.5592149 75.7111687 -8.55636448 80.18077896 -16.4765625 82.24609375 C-31.72107405 83.72188465 -44.13872268 81.73958127 -56.4765625 72.24609375 C-65.2899985 64.30201028 -71.10376916 52.99250703 -71.84765625 41.046875 C-72.21144241 27.67551548 -69.44614652 17.50979686 -60.4765625 7.24609375 C-59.99960938 6.653125 -59.52265625 6.06015625 -59.03125 5.44921875 C-44.01820958 -11.60076686 -18.07232035 -11.62881373 0 0 Z " fill="#030201" transform="translate(256.4765625,274.75390625)"/>
<path d="M0 0 C2.24541575 -0.00968373 4.48990742 -0.0406952 6.73510742 -0.07226562 C8.16804471 -0.07879815 9.60098853 -0.08404764 11.03393555 -0.08789062 C12.98650269 -0.10190918 12.98650269 -0.10190918 14.97851562 -0.11621094 C19.52617553 0.350478 22.07287465 1.86120473 25.2644043 5.05273438 C26.87297492 8.01589078 26.85995405 9.90782807 26.4519043 13.24023438 C24.72690979 17.0352223 23.29388938 18.71012653 19.4519043 20.24023438 C17.16186523 20.46728516 17.16186523 20.46728516 14.6862793 20.43554688 C13.79682617 20.42910156 12.90737305 20.42265625 11.9909668 20.41601562 C11.07057617 20.39925781 10.15018555 20.3825 9.2019043 20.36523438 C8.26604492 20.35621094 7.33018555 20.3471875 6.3659668 20.33789062 C4.06116941 20.31437228 1.75650397 20.27850264 -0.5480957 20.24023438 C-0.5480957 25.19023437 -0.5480957 30.14023437 -0.5480957 35.24023438 C1.20567383 35.18802734 1.20567383 35.18802734 2.99487305 35.13476562 C4.54303571 35.10661721 6.09121398 35.07931818 7.6394043 35.05273438 C8.79279297 35.0150293 8.79279297 35.0150293 9.96948242 34.9765625 C14.66872893 34.91605718 17.6004282 35.24950483 21.4519043 38.24023438 C23.82352903 40.61185911 24.39894593 41.82539386 24.8269043 45.17773438 C24.39974571 48.66619615 23.60250361 50.47517811 21.4519043 53.24023438 C17.60091836 56.03219918 13.24227238 55.46311959 8.7019043 55.36523438 C7.90913086 55.35621094 7.11635742 55.3471875 6.29956055 55.33789062 C4.35021148 55.31440449 2.40101855 55.27853575 0.4519043 55.24023438 C0.4519043 60.19023437 0.4519043 65.14023437 0.4519043 70.24023438 C2.31395508 70.18802734 2.31395508 70.18802734 4.21362305 70.13476562 C5.85553656 70.10661854 7.49746475 70.07931936 9.1394043 70.05273438 C9.95602539 70.02759766 10.77264648 70.00246094 11.61401367 69.9765625 C16.42653282 69.91811085 19.52291347 70.14237622 23.4519043 73.24023438 C25.78353671 75.57186679 26.3904049 76.83609548 26.8894043 80.11523438 C26.34129663 84.03028915 24.88432953 86.16393187 22.4519043 89.24023438 C17.77010055 91.58113625 10.87515441 90.63598223 5.67700195 90.70019531 C4.03380139 90.72677697 2.39076691 90.76767584 0.74829102 90.82324219 C-1.62722793 90.9026334 -3.99956733 90.93553943 -6.3762207 90.95898438 C-7.10456116 90.99197632 -7.83290161 91.02496826 -8.58331299 91.05895996 C-12.45358135 91.04390449 -15.15967464 90.30675189 -18.01123047 87.76391602 C-22.49207016 81.72588011 -21.38388967 73.30962569 -21.30981445 66.14257812 C-21.31131833 64.46301501 -21.31475194 62.78345262 -21.32002258 61.10389709 C-21.3243444 57.59258922 -21.3075884 54.08220285 -21.27539062 50.57104492 C-21.23557868 46.07942231 -21.24492778 41.58952374 -21.26962566 37.09784603 C-21.28383353 33.63267478 -21.27370314 30.16790369 -21.25611305 26.7027607 C-21.25028041 25.04703287 -21.25154021 23.3912638 -21.26013756 21.73554802 C-21.26816476 19.41839994 -21.24380255 17.10374772 -21.2109375 14.78686523 C-21.20394333 13.4711705 -21.19694916 12.15547577 -21.18974304 10.7999115 C-20.35351837 6.16077464 -18.84524529 4.54665322 -15.5480957 1.24023438 C-11.07472289 -0.99645203 -4.97601541 0.01300777 0 0 Z " fill="#040402" transform="translate(373.548095703125,266.759765625)"/>
<path d="M0 0 C2.16227385 -0.0171609 4.32299711 -0.0610394 6.48486328 -0.10522461 C7.86896666 -0.11535674 9.253083 -0.12387122 10.63720703 -0.13061523 C11.89178711 -0.14519775 13.14636719 -0.15978027 14.43896484 -0.17480469 C18.56553172 0.38007386 20.71562067 1.70405742 23.93408203 4.29516602 C25.53617064 7.49934323 25.42693418 10.81856033 24.93408203 14.29516602 C22.80959933 17.73829315 21.78555562 19.01134149 17.93408203 20.29516602 C16.5258331 20.375386 15.11410972 20.40282579 13.70361328 20.39282227 C12.90117187 20.38959961 12.09873047 20.38637695 11.27197266 20.38305664 C10.0219043 20.37048828 10.0219043 20.37048828 8.74658203 20.35766602 C7.90160156 20.3531543 7.05662109 20.34864258 6.18603516 20.34399414 C4.10202048 20.33222005 2.01804226 20.31428492 -0.06591797 20.29516602 C-0.06591797 25.24516602 -0.06591797 30.19516602 -0.06591797 35.29516602 C1.01947266 35.24875977 2.10486328 35.20235352 3.22314453 35.15454102 C4.66842934 35.11700115 6.11374414 35.08060337 7.55908203 35.04516602 C8.27193359 35.01165039 8.98478516 34.97813477 9.71923828 34.94360352 C14.92513205 34.84808253 17.79957358 35.86034361 21.93408203 39.29516602 C23.5349483 42.49689855 23.43325292 45.8209366 22.93408203 49.29516602 C21.14044292 52.10520062 19.91527268 53.80457069 16.93408203 55.29516602 C14.0503787 55.3671147 11.19168539 55.3880831 8.30908203 55.35766602 C7.50728516 55.3531543 6.70548828 55.34864258 5.87939453 55.34399414 C3.89759197 55.3321977 1.9158277 55.31426207 -0.06591797 55.29516602 C-0.06591797 60.24516602 -0.06591797 65.19516602 -0.06591797 70.29516602 C1.79613281 70.24295898 1.79613281 70.24295898 3.69580078 70.18969727 C5.33771429 70.16155018 6.97964249 70.134251 8.62158203 70.10766602 C9.43820313 70.0825293 10.25482422 70.05739258 11.09619141 70.03149414 C15.87665733 69.9734318 19.08040585 70.13411997 22.93408203 73.29516602 C25.390734 76.98014397 25.63494694 80.01488388 24.93408203 84.29516602 C23.14044292 87.10520062 21.91527268 88.80457069 18.93408203 90.29516602 C16.51187277 90.43011581 14.11967753 90.50771527 11.69580078 90.53344727 C10.97801956 90.54151901 10.26023834 90.54959076 9.52070618 90.5579071 C8.0000754 90.57174387 6.47941362 90.58246786 4.95874023 90.59033203 C2.64067161 90.60752443 0.32403734 90.65140782 -1.99365234 90.69555664 C-3.4721575 90.70568579 -4.95067476 90.7142012 -6.42919922 90.72094727 C-7.1189534 90.73845535 -7.80870758 90.75596344 -8.5193634 90.77400208 C-12.04908041 90.75820885 -13.96940338 90.35606261 -16.98071289 88.45605469 C-20.58379019 84.72220184 -20.22906092 80.86007155 -20.25878906 75.96557617 C-20.2710553 74.85042885 -20.2710553 74.85042885 -20.28356934 73.7127533 C-20.30837645 71.25325318 -20.32492553 68.79381051 -20.33935547 66.33422852 C-20.34467915 65.49371319 -20.35000282 64.65319786 -20.35548782 63.78721237 C-20.38219655 59.34000308 -20.4015804 54.89282166 -20.41601562 50.44555664 C-20.42936673 46.76529145 -20.45724344 43.08557917 -20.49804688 39.40551758 C-20.54733014 34.9605152 -20.57213087 30.51601513 -20.57924271 26.07075119 C-20.58595898 24.3778472 -20.60119096 22.68495458 -20.62513351 20.99220657 C-20.65675006 18.62205756 -20.6568284 16.25384939 -20.64941406 13.88354492 C-20.6658194 13.18622757 -20.68222473 12.48891022 -20.6991272 11.77046204 C-20.64973645 7.90856631 -20.15317071 6.400521 -17.65444946 3.38339233 C-12.34454739 -0.90022457 -6.53372039 0.03612642 0 0 Z " fill="#010101" transform="translate(143.06591796875,266.704833984375)"/>
<path d="M0 0 C0.9378685 0.00233139 1.875737 0.00466278 2.84202576 0.00706482 C4.81982552 0.0167871 6.79759805 0.03853919 8.77514648 0.0715332 C11.801689 0.12098094 14.82660542 0.13301777 17.85351562 0.13867188 C19.77736104 0.15275722 21.70119235 0.16896139 23.625 0.1875 C24.5292421 0.1928627 25.43348419 0.1982254 26.36512756 0.20375061 C27.63180519 0.2277317 27.63180519 0.2277317 28.92407227 0.25219727 C30.03396263 0.26815697 30.03396263 0.26815697 31.16627502 0.28443909 C34.75915103 0.75803984 36.76079818 1.97289219 39.05859375 4.74609375 C40.66057047 8.54024913 40.3721849 10.61727473 39.24609375 14.55859375 C37.05617778 17.14157156 35.27777687 19.04275219 32.24609375 20.55859375 C30.5390664 20.62855389 28.82941372 20.64299529 27.12109375 20.62109375 C26.21101563 20.61207031 25.3009375 20.60304688 24.36328125 20.59375 C23.31527344 20.57634766 23.31527344 20.57634766 22.24609375 20.55859375 C22.25275558 21.33675949 22.25941742 22.11492523 22.26628113 22.91667175 C22.32645004 30.2584513 22.37209736 37.6001109 22.40153027 44.94207287 C22.41717086 48.71645331 22.43837936 52.49062961 22.47241211 56.26489258 C22.50506351 59.90886243 22.52295885 63.55263622 22.53072548 67.1967411 C22.53625867 68.58539223 22.54706378 69.97403291 22.56328392 71.36260033 C22.58513231 73.3108812 22.58631979 75.25936033 22.58666992 77.20776367 C22.59333176 78.31584885 22.59999359 79.42393402 22.6068573 80.56559753 C22.19493447 83.98302554 21.29704282 85.81605016 19.24609375 88.55859375 C15.23975624 91.22948542 11.95617947 91.26553248 7.24609375 90.55859375 C4.213937 88.36028011 3.42954977 87.10896181 2.24609375 83.55859375 C2.15698202 81.51892894 2.1284933 79.47642089 2.13256836 77.43481445 C2.13264389 76.17373367 2.13271942 74.91265289 2.13279724 73.61335754 C2.13790386 72.23702963 2.14311986 70.86070212 2.1484375 69.484375 C2.15030289 68.07618764 2.15172622 66.66799964 2.15272522 65.2598114 C2.15654087 61.55592045 2.16636303 57.8520688 2.1774292 54.14819336 C2.18766378 50.36768119 2.19222723 46.58716266 2.19726562 42.80664062 C2.20798615 35.3906071 2.22505115 27.97460593 2.24609375 20.55859375 C1.10829468 20.58904785 1.10829468 20.58904785 -0.05249023 20.62011719 C-1.04579346 20.6359082 -2.03909668 20.65169922 -3.0625 20.66796875 C-4.54061157 20.69842285 -4.54061157 20.69842285 -6.04858398 20.72949219 C-8.75390625 20.55859375 -8.75390625 20.55859375 -11.81640625 18.80859375 C-14.84065169 15.29656678 -15.77765407 13.86472381 -15.69140625 9.12109375 C-13.39115836 0.38015176 -7.90275004 -0.17108842 0 0 Z " fill="#020101" transform="translate(431.75390625,266.44140625)"/>
<path d="M0 0 C2.66058731 2.14144833 3.7253011 3.56867416 4.37109375 6.93359375 C4.59425621 10.51095567 4.15244562 12.68848069 2.5625 15.9375 C-1.05901976 18.85238176 -4.39406378 19.44335215 -9 19 C-11.92143417 17.23496686 -13.47923817 16.04152365 -15 13 C-15.47856915 9.91656082 -15.54033846 7.07781025 -15 4 C-10.76187505 -1.43349352 -6.5062416 -2.2098999 0 0 Z " fill="#050402" transform="translate(355,140)"/>
<path d="M0 0 C12.65513393 -0.27511161 12.65513393 -0.27511161 16 2 C18.34549674 5.51824511 18.57991403 6.85775694 18 11 C16.3125 13.875 16.3125 13.875 13 16 C8.57776229 16.4229501 4.46134916 16.22532066 0 16 C0 10.72 0 5.44 0 0 Z " fill="#FBD78D" transform="translate(299,287)"/>
</svg>
